<?xml version="1.0" encoding="UTF-8" standalone="no"?>
<!-- Generator: Adobe Illustrator 16.0.0, SVG Export Plug-In . SVG Version: 6.00 Build 0)  -->

<svg
   xmlns:dc="http://purl.org/dc/elements/1.1/"
   xmlns:cc="http://creativecommons.org/ns#"
   xmlns:rdf="http://www.w3.org/1999/02/22-rdf-syntax-ns#"
   xmlns:svg="http://www.w3.org/2000/svg"
   xmlns="http://www.w3.org/2000/svg"
   xmlns:sodipodi="http://sodipodi.sourceforge.net/DTD/sodipodi-0.dtd"
   xmlns:inkscape="http://www.inkscape.org/namespaces/inkscape"
   version="1.1"
   id="图层_5"
   x="0px"
   y="0px"
   width="612px"
   height="792px"
   viewBox="0 0 612 792"
   enable-background="new 0 0 612 792"
   xml:space="preserve"
   inkscape:version="0.48.4 r9939"
   sodipodi:docname="haxlr8r-logo-pcb-NEW.ps"><metadata
     id="metadata3396"><rdf:RDF><cc:Work
         rdf:about=""><dc:format>image/svg+xml</dc:format><dc:type
           rdf:resource="http://purl.org/dc/dcmitype/StillImage" /><dc:title></dc:title></cc:Work></rdf:RDF></metadata><defs
     id="defs3394" /><sodipodi:namedview
     pagecolor="#ffffff"
     bordercolor="#666666"
     borderopacity="1"
     objecttolerance="10"
     gridtolerance="10"
     guidetolerance="10"
     inkscape:pageopacity="0"
     inkscape:pageshadow="2"
     inkscape:window-width="1280"
     inkscape:window-height="736"
     id="namedview3392"
     showgrid="false"
     inkscape:snap-bbox="true"
     inkscape:bbox-paths="true"
     inkscape:bbox-nodes="true"
     inkscape:snap-bbox-edge-midpoints="true"
     inkscape:snap-bbox-midpoints="true"
     inkscape:object-paths="true"
     inkscape:snap-intersection-paths="true"
     inkscape:object-nodes="true"
     inkscape:snap-smooth-nodes="true"
     inkscape:snap-midpoints="true"
     inkscape:snap-object-midpoints="true"
     inkscape:snap-center="true"
     inkscape:snap-page="true"
     inkscape:snap-grids="true"
     inkscape:snap-to-guides="true"
     inkscape:zoom="1.0906884"
     inkscape:cx="459.70592"
     inkscape:cy="375.25123"
     inkscape:window-x="0"
     inkscape:window-y="41"
     inkscape:window-maximized="1"
     inkscape:current-layer="图层_5" /><path
     d="m 253.74756,239.64156 -35.22676,12.72571 -4.01677,4.7988 31.88536,24.20729 -9.77533,13.11672 -32.09865,-23.99401 -4.08787,4.90544 -1.77733,37.67948 32.80958,25.23814 13.22336,-4.51443 -4.2656,-8.56675 23.31862,-39.45681 16.70694,8.95777 -10.09526,22.03894 19.90614,33.1295 2.52382,2.27498 77.34956,69.13829 c 5.0209,-0.99417 17.34962,-9.6195 24.52721,-18.02217 7.17758,-8.40266 10.02416,-28.82835 10.02416,-28.82835 l -119.7923,-76.63863 2.1328,-33.23615 -33.27168,-24.95376 z"
     id="path3380"
     inkscape:connector-curvature="0" /><polygon
     stroke-miterlimit="10"
     points="306.707,322.632 336.789,261.878 322.501,255.723 286.976,309.633 "
     id="polygon3372"
     style="fill:#ff0000;stroke:#000000;stroke-miterlimit:10"
     transform="matrix(1.1374936,0,0,1.1374936,-41.538682,-54.364998)" /><polygon
     stroke-miterlimit="10"
     points="300.483,355.022 313.125,360.573 335.108,321.439 317.869,310.638 "
     id="polygon3374"
     style="fill:#ff0000;stroke:#000000;stroke-miterlimit:10"
     transform="matrix(1.1374936,0,0,1.1374936,-41.538682,-54.364998)" /><polygon
     stroke-miterlimit="10"
     points="315.607,362.316 330.066,369.972 352.637,339.043 335.987,326.733 "
     id="polygon3376"
     style="fill:#ff0000;stroke:#000000;stroke-miterlimit:10"
     transform="matrix(1.1374936,0,0,1.1374936,-41.538682,-54.364998)" /><polygon
     stroke-miterlimit="10"
     points="385.383,308.99 393.957,315.401 369.959,362.337 352.197,351.013 "
     id="polygon3378"
     style="fill:#ff0000;stroke:#000000;stroke-miterlimit:10"
     transform="matrix(1.1374936,0,0,1.1374936,-41.538682,-54.364998)" /><polygon
     stroke-miterlimit="10"
     points="311.382,534.712 335.358,534.712 315.319,462.683 285.345,462.723 263.98,534.712 286.517,534.712 289.666,523.124 307.901,523.264 "
     id="polygon3384"
     style="fill:#000000;stroke:#000000;stroke-miterlimit:10"
     transform="matrix(1.1374936,0,0,1.1374936,-41.538682,-54.364998)" /><polygon
     stroke-miterlimit="10"
     points="292.802,507.057 304.313,507.057 297.915,486.511 "
     id="polygon3386"
     style="fill:#ff0000;stroke:#000000;stroke-miterlimit:10"
     transform="matrix(1.1374936,0,0,1.1374936,-41.538682,-54.364998)" /><polygon
     stroke-miterlimit="10"
     points="362.134,475.745 368.947,462.723 392.852,462.723 373.874,498.178 393.419,534.712 370.171,534.712 362.322,520.211 354.76,534.712 332.147,534.712 350.23,498.449 331.147,462.723 354.98,462.723 "
     id="polygon3388"
     style="fill:#000000;stroke:#000000;stroke-miterlimit:10"
     transform="matrix(1.1374936,0,0,1.1374936,-41.538682,-54.364998)" /><polygon
     stroke-miterlimit="10"
     points="232.288,535.057 231.935,507.949 243.074,508.302 243.427,534.712 265.045,535.057 265.045,462.723 243.074,462.723 243.074,488.889 231.935,488.889 232.288,462.723 210.27,462.683 210.27,535.057 "
     id="polygon3390"
     style="fill:#000000;stroke:#000000;stroke-miterlimit:10"
     transform="matrix(1.1374936,0,0,1.1374936,-41.538682,-54.757433)" /><polygon
     transform="matrix(1.1374936,0,0,1.1374936,-41.522757,-54.347651)"
     stroke-miterlimit="10"
     points="350.146,408.054 291.686,355.419 274.183,326.296 283.052,306.9 268.361,299.016 247.872,333.731 283.372,404.788 262.586,480.789 322.362,464.136 286.252,535.062 366.178,429.246 327.095,443.219 "
     id="polygon3382-2"
     style="fill:#ff0000;stroke:#000000;stroke-miterlimit:10" /></svg>